HIERARCHY
ROOT Hips
{
	OFFSET 0.717293 88.513641 3.606412
	CHANNELS 6 Xposition Yposition Zposition Zrotation Yrotation Xrotation 
	JOINT Spine
	{
		OFFSET -0.000000 8.814246 -2.080107
		CHANNELS 3 Zrotation Yrotation Xrotation
		JOINT Spine1
		{
			OFFSET -0.000000 8.844141 -0.000000
			CHANNELS 3 Zrotation Yrotation Xrotation
			JOINT Spine2
			{
				OFFSET 0.000000 11.682268 0.000000
				CHANNELS 3 Zrotation Yrotation Xrotation
				JOINT Spine3
				{
					OFFSET 0.000000 11.746700 -0.000000
					CHANNELS 3 Zrotation Yrotation Xrotation
					JOINT Neck
					{
						OFFSET 0.000000 17.658264 0.000000
						CHANNELS 3 Zrotation Yrotation Xrotation
						JOINT Neck1
						{
							OFFSET -0.000000 5.101515 -0.000000
							CHANNELS 3 Zrotation Yrotation Xrotation
							JOINT Head
							{
								OFFSET -0.000000 5.101515 -0.000000
								CHANNELS 3 Zrotation Yrotation Xrotation
								JOINT HeadEnd
								{
									OFFSET -0.000000 11.655085 -0.000000
									CHANNELS 3 Zrotation Yrotation Xrotation
									End Site
									{
										OFFSET 0.000000 0.000000 0.000000
									}
								}
							}
						}
					}
					JOINT RightShoulder
					{
						OFFSET -2.625389 11.175210 -0.000000
						CHANNELS 3 Zrotation Yrotation Xrotation
						JOINT RightArm
						{
							OFFSET 0.000000 10.434715 0.000000
							CHANNELS 3 Zrotation Yrotation Xrotation
							JOINT RightForeArm
							{
								OFFSET 0.000000 29.628420 0.000000
								CHANNELS 3 Zrotation Yrotation Xrotation
								JOINT RightHand
								{
									OFFSET 0.000000 22.857611 -0.000000
									CHANNELS 3 Zrotation Yrotation Xrotation
									JOINT RightHandThumb1
									{
										OFFSET -2.867323 3.959563 2.944291
										CHANNELS 3 Zrotation Yrotation Xrotation
										JOINT RightHandThumb2
										{
											OFFSET 0.000000 3.350399 -0.000000
											CHANNELS 3 Zrotation Yrotation Xrotation
											JOINT RightHandThumb3
											{
												OFFSET 0.000000 3.756509 -0.000000
												CHANNELS 3 Zrotation Yrotation Xrotation
												JOINT RightHandThumb4
												{
													OFFSET -0.000000 3.147345 -0.000000
													CHANNELS 3 Zrotation Yrotation Xrotation
													End Site
													{
														OFFSET 0.000000 0.000000 0.000000
													}
												}
											}
										}
									}
									JOINT RightHandIndex1
									{
										OFFSET -0.086752 10.030893 2.345280
										CHANNELS 3 Zrotation Yrotation Xrotation
										JOINT RightHandIndex2
										{
											OFFSET -0.000000 4.061090 -0.000000
											CHANNELS 3 Zrotation Yrotation Xrotation
											JOINT RightHandIndex3
											{
												OFFSET -0.000000 3.248873 0.000000
												CHANNELS 3 Zrotation Yrotation Xrotation
												JOINT RightHandIndex4
												{
													OFFSET -0.000000 2.639709 0.000000
													CHANNELS 3 Zrotation Yrotation Xrotation
													End Site
													{
														OFFSET 0.000000 0.000000 0.000000
													}
												}
											}
										}
									}
									JOINT RightHandMiddle1
									{
										OFFSET 0.104102 9.502952 0.006768
										CHANNELS 3 Zrotation Yrotation Xrotation
										JOINT RightHandMiddle2
										{
											OFFSET 0.000000 4.568727 -0.000000
											CHANNELS 3 Zrotation Yrotation Xrotation
											JOINT RightHandMiddle3
											{
												OFFSET 0.000000 3.654981 -0.000000
												CHANNELS 3 Zrotation Yrotation Xrotation
												JOINT RightHandMiddle4
												{
													OFFSET 0.000000 2.741236 0.000000
													CHANNELS 3 Zrotation Yrotation Xrotation
													End Site
													{
														OFFSET 0.000000 0.000000 0.000000
													}
												}
											}
										}
									}
									JOINT RightHandRing1
									{
										OFFSET 0.086752 8.921708 -2.267442
										CHANNELS 3 Zrotation Yrotation Xrotation
										JOINT RightHandRing2
										{
											OFFSET -0.000000 4.061090 -0.000000
											CHANNELS 3 Zrotation Yrotation Xrotation
											JOINT RightHandRing3
											{
												OFFSET -0.000000 3.654981 0.000000
												CHANNELS 3 Zrotation Yrotation Xrotation
												JOINT RightHandRing4
												{
													OFFSET -0.000000 2.741236 0.000000
													CHANNELS 3 Zrotation Yrotation Xrotation
													End Site
													{
														OFFSET 0.000000 0.000000 0.000000
													}
												}
											}
										}
									}
									JOINT RightHandPinky1
									{
										OFFSET -0.173504 7.976997 -4.467199
										CHANNELS 3 Zrotation Yrotation Xrotation
										JOINT RightHandPinky2
										{
											OFFSET -0.000000 3.350399 -0.000000
											CHANNELS 3 Zrotation Yrotation Xrotation
											JOINT RightHandPinky3
											{
												OFFSET -0.000000 2.842763 0.000000
												CHANNELS 3 Zrotation Yrotation Xrotation
												JOINT RightHandPinky4
												{
													OFFSET 0.000000 2.639709 -0.000000
													CHANNELS 3 Zrotation Yrotation Xrotation
													End Site
													{
														OFFSET 0.000000 0.000000 0.000000
													}
												}
											}
										}
									}
									JOINT RightForeArmEnd
									{
										OFFSET 0.000000 0.000000 0.000000
										CHANNELS 3 Zrotation Yrotation Xrotation
										End Site
										{
											OFFSET 0.000000 0.000000 0.000000
										}
									}
								}
								JOINT RightArmEnd
								{
									OFFSET 0.000000 0.000000 0.000000
									CHANNELS 3 Zrotation Yrotation Xrotation
									End Site
									{
										OFFSET 0.000000 0.000000 0.000000
									}
								}
							}
						}
					}
					JOINT LeftShoulder
					{
						OFFSET 2.625389 11.175210 -0.000000
						CHANNELS 3 Zrotation Yrotation Xrotation
						JOINT LeftArm
						{
							OFFSET 0.000000 10.813635 0.000000
							CHANNELS 3 Zrotation Yrotation Xrotation
							JOINT LeftForeArm
							{
								OFFSET -0.000000 28.724781 -0.000000
								CHANNELS 3 Zrotation Yrotation Xrotation
								JOINT LeftHand
								{
									OFFSET 0.644384 25.716167 -0.328871
									CHANNELS 3 Zrotation Yrotation Xrotation
									JOINT LeftHandThumb1
									{
										OFFSET 2.867323 3.959563 2.944291
										CHANNELS 3 Zrotation Yrotation Xrotation
										JOINT LeftHandThumb2
										{
											OFFSET 0.000000 3.350399 0.000000
											CHANNELS 3 Zrotation Yrotation Xrotation
											JOINT LeftHandThumb3
											{
												OFFSET 0.000000 3.756509 0.000000
												CHANNELS 3 Zrotation Yrotation Xrotation
												JOINT LeftHandThumb4
												{
													OFFSET -0.000000 3.100000 0.000000
													CHANNELS 3 Zrotation Yrotation Xrotation
													End Site
													{
														OFFSET 0.000000 0.000000 0.000000
													}
												}
											}
										}
									}
									JOINT LeftHandIndex1
									{
										OFFSET 0.086752 10.030893 2.345280
										CHANNELS 3 Zrotation Yrotation Xrotation
										JOINT LeftHandIndex2
										{
											OFFSET -0.000000 4.061090 -0.000000
											CHANNELS 3 Zrotation Yrotation Xrotation
											JOINT LeftHandIndex3
											{
												OFFSET -0.000000 3.248873 -0.000000
												CHANNELS 3 Zrotation Yrotation Xrotation
												JOINT LeftHandIndex4
												{
													OFFSET -0.000000 2.639709 -0.000000
													CHANNELS 3 Zrotation Yrotation Xrotation
													End Site
													{
														OFFSET 0.000000 0.000000 0.000000
													}
												}
											}
										}
									}
									JOINT LeftHandMiddle1
									{
										OFFSET -0.104102 9.502952 0.006768
										CHANNELS 3 Zrotation Yrotation Xrotation
										JOINT LeftHandMiddle2
										{
											OFFSET 0.000000 4.568727 -0.000000
											CHANNELS 3 Zrotation Yrotation Xrotation
											JOINT LeftHandMiddle3
											{
												OFFSET 0.000000 3.654981 0.000000
												CHANNELS 3 Zrotation Yrotation Xrotation
												JOINT LeftHandMiddle4
												{
													OFFSET 0.000000 2.741236 0.000000
													CHANNELS 3 Zrotation Yrotation Xrotation
													End Site
													{
														OFFSET 0.000000 0.000000 0.000000
													}
												}
											}
										}
									}
									JOINT LeftHandRing1
									{
										OFFSET -0.086752 8.921708 -2.267442
										CHANNELS 3 Zrotation Yrotation Xrotation
										JOINT LeftHandRing2
										{
											OFFSET -0.000000 4.061090 -0.000000
											CHANNELS 3 Zrotation Yrotation Xrotation
											JOINT LeftHandRing3
											{
												OFFSET 0.000000 3.654981 0.000000
												CHANNELS 3 Zrotation Yrotation Xrotation
												JOINT LeftHandRing4
												{
													OFFSET -0.000000 2.741236 -0.000000
													CHANNELS 3 Zrotation Yrotation Xrotation
													End Site
													{
														OFFSET 0.000000 0.000000 0.000000
													}
												}
											}
										}
									}
									JOINT LeftHandPinky1
									{
										OFFSET 0.173504 7.976997 -4.467199
										CHANNELS 3 Zrotation Yrotation Xrotation
										JOINT LeftHandPinky2
										{
											OFFSET 0.000000 3.350399 -0.000000
											CHANNELS 3 Zrotation Yrotation Xrotation
											JOINT LeftHandPinky3
											{
												OFFSET 0.000000 2.842763 0.000000
												CHANNELS 3 Zrotation Yrotation Xrotation
												JOINT LeftHandPinky4
												{
													OFFSET -0.000000 2.639709 -0.000000
													CHANNELS 3 Zrotation Yrotation Xrotation
													End Site
													{
														OFFSET 0.000000 0.000000 0.000000
													}
												}
											}
										}
									}
									JOINT LeftForeArmEnd
									{
										OFFSET 0.000000 0.000000 0.000000
										CHANNELS 3 Zrotation Yrotation Xrotation
										End Site
										{
											OFFSET 0.000000 0.000000 0.000000
										}
									}
								}
								JOINT LeftArmEnd
								{
									OFFSET 0.000000 0.000000 0.000000
									CHANNELS 3 Zrotation Yrotation Xrotation
									End Site
									{
										OFFSET 0.000000 0.000000 0.000000
									}
								}
							}
						}
					}
				}
			}
		}
	}
	JOINT RightUpLeg
	{
		OFFSET -11.289943 0.000000 -0.000000
		CHANNELS 3 Zrotation Yrotation Xrotation
		JOINT RightLeg
		{
			OFFSET 0.000000 -38.200325 -0.000000
			CHANNELS 3 Zrotation Yrotation Xrotation
			JOINT RightFoot
			{
				OFFSET -0.000000 -39.900856 -0.000000
				CHANNELS 3 Zrotation Yrotation Xrotation
				JOINT RightToeBase
				{
					OFFSET -0.000000 0.000000 15.261641
					CHANNELS 3 Zrotation Yrotation Xrotation
					JOINT RightToeBaseEnd
					{
						OFFSET 0.000000 0.000000 7.370709
						CHANNELS 3 Zrotation Yrotation Xrotation
						End Site
						{
							OFFSET 0.000000 0.000000 0.000000
						}
					}
				}
				JOINT RightLegEnd
				{
					OFFSET 0.000000 0.000000 0.000000
					CHANNELS 3 Zrotation Yrotation Xrotation
					End Site
					{
						OFFSET 0.000000 0.000000 0.000000
					}
				}
			}
			JOINT RightUpLegEnd
			{
				OFFSET 0.000000 0.000000 0.000000
				CHANNELS 3 Zrotation Yrotation Xrotation
				End Site
				{
					OFFSET 0.000000 0.000000 0.000000
				}
			}
		}
	}
	JOINT LeftUpLeg
	{
		OFFSET 11.315661 -0.000000 -0.000000
		CHANNELS 3 Zrotation Yrotation Xrotation
		JOINT LeftLeg
		{
			OFFSET 0.000000 -38.200325 0.000000
			CHANNELS 3 Zrotation Yrotation Xrotation
			JOINT LeftFoot
			{
				OFFSET 0.000000 -39.900856 0.000000
				CHANNELS 3 Zrotation Yrotation Xrotation
				JOINT LeftToeBase
				{
					OFFSET 0.000000 -0.000000 15.261641
					CHANNELS 3 Zrotation Yrotation Xrotation
					JOINT LeftToeBaseEnd
					{
						OFFSET -0.000000 0.000000 7.539996
						CHANNELS 3 Zrotation Yrotation Xrotation
						End Site
						{
							OFFSET 0.000000 0.000000 0.000000
						}
					}
				}
				JOINT LeftLegEnd
				{
					OFFSET 0.000000 0.000000 0.000000
					CHANNELS 3 Zrotation Yrotation Xrotation
					End Site
					{
						OFFSET 0.000000 0.000000 0.000000
					}
				}
			}
			JOINT LeftUpLegEnd
			{
				OFFSET 0.000000 0.000000 0.000000
				CHANNELS 3 Zrotation Yrotation Xrotation
				End Site
				{
					OFFSET 0.000000 0.000000 0.000000
				}
			}
		}
	}
}
MOTION
Frames: 4
Frame Time: 0.016667
0.932115 86.937859 8.595930 -1.177089 -1.143472 -12.752083 3.349350 -0.273706 8.010016 0.272192 0.054207 3.521765 -1.084878 -0.743474 3.759400 -1.643182 -0.234960 4.589953 -1.140524 0.774874 5.483456 -0.372987 0.810907 -3.383878 -0.893656 -1.019645 -21.721605 0.000000 0.000000 0.000000 86.589035 0.818089 8.536209 57.463020 11.093951 8.094005 -0.569927 20.049780 90.544205 12.292317 47.450783 12.200862 9.670360 -1.734151 40.217911 -0.000006 0.000011 -23.637169 -0.000001 0.000046 -16.173542 0.000003 0.000006 -0.000011 9.870924 0.141019 0.783981 6.587084 -0.038005 0.060243 6.440587 -0.020615 0.000438 -0.000022 0.000034 -0.000005 9.933599 0.027895 -1.893457 6.009011 -0.027075 0.007659 6.352670 -0.005558 0.007155 -0.000008 0.000068 -0.000001 11.479326 -0.052077 -6.141674 6.609632 0.062981 -0.044713 6.778150 0.033992 -0.029718 0.000025 0.000317 0.000008 12.519859 -0.125469 -11.639531 7.320829 0.235256 -0.095138 7.539137 0.104918 -0.105384 -0.001244 0.000013 0.000013 0.000000 0.000000 0.000000 0.000000 0.000000 0.000000 -86.757957 -0.461927 5.212039 -67.290596 -2.175694 -2.973511 0.105464 -17.426102 111.673080 -56.866272 -44.311935 33.450619 -8.407891 1.555141 40.792023 -0.000006 0.000000 -20.491852 -0.000060 -0.000012 -14.097794 0.001285 0.000004 -0.000289 -5.931237 0.122926 -1.860541 -4.065811 -0.103145 -0.248046 -4.399248 -0.089216 -0.198862 0.000024 -0.000918 -0.000015 -7.321537 0.035514 -5.735905 -4.709431 -0.046692 -0.082915 -4.451243 -0.022510 -0.066161 -0.000620 0.000009 0.000018 -13.181873 -0.039384 -11.619922 -7.685142 0.092147 0.108092 -7.404384 0.034859 0.070176 -0.002089 0.000017 -0.000003 -17.768450 -0.200030 -17.722002 -11.147725 0.207606 0.379605 -11.078709 0.125221 0.246592 0.000199 0.000017 -0.000038 0.000000 0.000000 0.000000 0.000000 0.000000 0.000000 -1.473962 -15.368840 18.325504 -0.030726 -0.477451 3.975601 -2.738473 -10.457846 16.817530 -0.874002 0.848156 -16.702097 0.000000 0.000000 0.000000 0.000000 0.000000 0.000000 0.000000 0.000000 0.000000 9.037224 -2.099660 12.144902 0.280283 1.211915 13.390921 -4.251643 2.024354 15.630600 0.889080 -0.967479 -20.515594 0.000000 0.000000 0.000000 0.000000 0.000000 0.000000 0.000000 0.000000 0.000000 
0.804960 86.918022 8.555151 -1.187246 -0.843286 -12.764720 3.375453 -0.285223 8.009504 0.309027 0.041274 3.544997 -1.103645 -0.773049 3.777455 -1.670663 -0.241996 4.600780 -1.132547 0.722673 5.561155 -0.366508 0.722333 -3.344974 -0.845825 -1.018960 -21.790838 0.000000 0.000000 0.000000 86.544464 0.850863 8.658492 57.036697 10.407370 8.091046 -0.547728 19.952003 90.322479 12.007557 46.636395 11.358094 9.670529 -1.734924 40.216587 -0.000008 0.000011 -23.656475 0.000000 0.000046 -16.182148 0.000003 0.000006 -0.000010 9.834474 0.136542 0.715231 6.609936 -0.031244 0.044081 6.461608 -0.015242 -0.012065 -0.000023 0.000034 -0.000005 9.861575 0.026993 -1.954047 6.015983 -0.024558 0.002042 6.362803 -0.004124 0.002573 -0.000008 0.000075 -0.000001 11.304464 -0.051550 -6.208270 6.573323 0.058517 -0.040779 6.747783 0.031019 -0.027898 0.000026 0.000398 0.000007 12.276664 -0.120598 -11.683337 7.227221 0.226714 -0.098953 7.453802 0.097574 -0.112773 -0.001179 0.000013 0.000015 0.000000 0.000000 0.000000 0.000000 0.000000 0.000000 -86.681473 -0.534057 5.318981 -66.726608 -1.769567 -2.472521 0.233213 -17.123793 112.074066 -55.800812 -42.930248 32.263462 -8.171848 1.531160 40.897091 -0.000006 -0.000000 -19.906607 -0.000064 -0.000012 -13.703885 0.001363 0.000004 -0.000301 -4.640488 0.120234 -1.289732 -3.350543 -0.102337 -0.270928 -3.685922 -0.088488 -0.219400 0.000024 -0.000923 -0.000015 -6.149895 0.034340 -5.376793 -3.992193 -0.046074 -0.092340 -3.730001 -0.022149 -0.073987 -0.000496 0.000010 0.000024 -12.093969 -0.038538 -11.546410 -6.950615 0.092176 0.122134 -6.670598 0.035201 0.081844 -0.002098 0.000018 -0.000003 -16.766130 -0.195976 -17.895540 -10.474279 0.208044 0.429216 -10.404382 0.126021 0.287814 0.000238 0.000017 -0.000037 0.000000 0.000000 0.000000 0.000000 0.000000 0.000000 -1.398398 -15.568683 18.320038 -0.029394 -0.458092 4.015409 -2.814980 -10.603690 16.755323 -0.870594 0.838422 -16.681383 0.000000 0.000000 0.000000 0.000000 0.000000 0.000000 0.000000 0.000000 0.000000 9.131205 -2.239874 11.966446 0.285949 1.223174 13.529328 -4.305015 1.723681 15.706966 0.879541 -0.963534 -20.600758 0.000000 0.000000 0.000000 0.000000 0.000000 0.000000 0.000000 0.000000 0.000000 
0.680697 86.896957 8.515661 -1.190446 -0.533438 -12.782488 3.388432 -0.296114 8.020328 0.345274 0.027064 3.555064 -1.123753 -0.816387 3.816350 -1.692134 -0.256636 4.618078 -1.124990 0.666670 5.659792 -0.365000 0.627265 -3.287087 -0.798226 -1.019093 -21.859316 0.000000 0.000000 0.000000 86.500465 0.879148 8.791305 56.605762 9.771935 8.138178 -0.531779 19.829081 90.278687 11.834020 45.778149 10.668736 9.661057 -1.734875 40.219944 -0.000009 0.000010 -23.651169 0.000002 0.000046 -16.175442 0.000002 0.000005 -0.000010 9.747639 0.132909 0.659003 6.576431 -0.023103 0.024159 6.425691 -0.008506 -0.027505 -0.000024 0.000034 -0.000004 9.731770 0.026281 -2.019860 5.966763 -0.021590 -0.004533 6.313855 -0.002235 -0.002836 -0.000008 0.000082 -0.000001 11.068249 -0.050996 -6.299274 6.471824 0.053451 -0.035392 6.651758 0.027602 -0.024959 0.000026 0.000473 0.000007 11.961644 -0.115623 -11.766178 7.069362 0.216414 -0.099379 7.306101 0.088811 -0.117174 -0.001115 0.000013 0.000016 0.000000 0.000000 0.000000 0.000000 0.000000 0.000000 -86.571625 -0.609201 5.451020 -66.210381 -1.395283 -1.932512 0.354035 -16.832912 112.300568 -54.714066 -41.639809 31.186731 -7.933734 1.505682 41.004025 -0.000006 -0.000000 -19.318071 -0.000068 -0.000013 -13.304997 0.001420 0.000004 -0.000289 -3.335292 0.117971 -0.657037 -2.675221 -0.100200 -0.286377 -3.012532 -0.086510 -0.233519 0.000023 -0.000903 -0.000014 -4.963512 0.033362 -4.961562 -3.309388 -0.045025 -0.099448 -3.048196 -0.021395 -0.079865 -0.000381 0.000010 0.000029 -10.983707 -0.038043 -11.426618 -6.239056 0.091454 0.133485 -5.958798 0.035029 0.091531 -0.002109 0.000018 -0.000004 -15.720533 -0.192562 -18.028526 -9.801098 0.206783 0.471995 -9.732492 0.125377 0.323496 0.000276 0.000017 -0.000037 0.000000 0.000000 0.000000 0.000000 0.000000 0.000000 -1.332500 -15.778368 18.329718 -0.028360 -0.440255 4.061831 -2.889449 -10.737081 16.680452 -0.866721 0.830416 -16.664968 0.000000 0.000000 0.000000 0.000000 0.000000 0.000000 0.000000 0.000000 0.000000 9.217618 -2.375984 11.793040 0.291347 1.235405 13.661059 -4.361930 1.396435 15.781243 0.872209 -0.962485 -20.682642 0.000000 0.000000 0.000000 0.000000 0.000000 0.000000 0.000000 0.000000 0.000000 
0.559899 86.874649 8.479587 -1.185790 -0.219133 -12.805431 3.388910 -0.306477 8.043592 0.380103 0.012329 3.550092 -1.144724 -0.872429 3.872810 -1.706732 -0.278617 4.637138 -1.132384 0.616488 5.771233 -0.369209 0.533247 -3.214744 -0.756731 -1.021225 -21.923254 0.000000 0.000000 0.000000 86.459984 0.904377 8.933855 56.163597 9.210779 8.257911 -0.523493 19.669355 90.414169 11.746647 44.934387 10.151266 9.636978 -1.733444 40.230186 -0.000010 0.000010 -23.608652 0.000003 0.000046 -16.143745 0.000002 0.000005 -0.000009 9.587154 0.130048 0.618849 6.477022 -0.014096 0.001913 6.323537 -0.000866 -0.044681 -0.000024 0.000034 -0.000004 9.526516 0.025762 -2.086843 5.852822 -0.018388 -0.011525 6.197214 -0.000033 -0.008594 -0.000007 0.000086 -0.000001 10.760825 -0.050416 -6.406510 6.299567 0.048248 -0.029216 6.484159 0.024023 -0.021378 0.000027 0.000542 0.000006 11.571262 -0.110542 -11.879665 6.845459 0.205403 -0.097268 7.094878 0.079521 -0.119281 -0.001052 0.000013 0.000017 0.000000 0.000000 0.000000 0.000000 0.000000 0.000000 -86.434448 -0.685054 5.608974 -65.741539 -1.077549 -1.349147 0.461817 -16.541098 112.300774 -53.636940 -40.532032 30.232895 -7.694010 1.478548 41.112545 -0.000006 -0.000000 -18.729551 -0.000072 -0.000013 -12.902899 0.001460 0.000004 -0.000257 -2.014651 0.116167 0.018618 -2.063568 -0.097129 -0.295954 -2.402552 -0.083695 -0.242713 0.000023 -0.000857 -0.000014 -3.759317 0.032579 -4.502018 -2.685027 -0.043712 -0.104820 -2.429169 -0.020377 -0.084266 -0.000272 0.000011 0.000033 -9.852211 -0.037889 -11.260989 -5.572327 0.090248 0.142707 -5.291905 0.034498 0.099577 -0.002115 0.000018 -0.000004 -14.640399 -0.189268 -18.112246 -9.149187 0.204411 0.509079 -9.083298 0.123771 0.354421 0.000314 0.000017 -0.000036 0.000000 0.000000 0.000000 0.000000 0.000000 0.000000 -1.278313 -15.996301 18.352024 -0.027597 -0.424131 4.113770 -2.959900 -10.853668 16.591202 -0.862454 0.824060 -16.651274 0.000000 0.000000 0.000000 0.000000 0.000000 0.000000 0.000000 0.000000 0.000000 9.299032 -2.496084 11.631124 0.296374 1.248664 13.778805 -4.424767 1.055297 15.852702 0.867857 -0.964825 -20.758242 0.000000 0.000000 0.000000 0.000000 0.000000 0.000000 0.000000 0.000000 0.000000 
